<?xml version="1.0" standalone="no"?><svg xmlns="http://www.w3.org/2000/svg" viewBox="0 0 1440 320"><path fill="#f3f4f5" fill-opacity="1" d="M0,224L34.3,202.7C68.6,181,137,139,206,144C274.3,149,343,203,411,224C480,245,549,235,617,229.3C685.7,224,754,224,823,229.3C891.4,235,960,245,1029,256C1097.1,267,1166,277,1234,288C1302.9,299,1371,309,1406,314.7L1440,320L1440,320L1405.7,320C1371.4,320,1303,320,1234,320C1165.7,320,1097,320,1029,320C960,320,891,320,823,320C754.3,320,686,320,617,320C548.6,320,480,320,411,320C342.9,320,274,320,206,320C137.1,320,69,320,34,320L0,320Z"></path></svg>